<?xml version="1.0" encoding="UTF-8"?>
<svg version="1.1" xmlns="http://www.w3.org/2000/svg" width="2160" height="2160">
<path d="M0 0 C2.00539503 -0.00165232 4.01078974 -0.00373981 6.01618391 -0.0062201 C11.51919117 -0.01176202 17.02218279 -0.01111889 22.52519194 -0.00944251 C28.51535319 -0.00870931 34.5055101 -0.01373928 40.49566948 -0.01801753 C50.99223137 -0.02470664 61.48878987 -0.02769451 71.98535347 -0.02815247 C83.24482695 -0.02865553 94.50429685 -0.03130935 105.76376915 -0.03656006 C106.47580613 -0.03689019 107.18784311 -0.03722033 107.92145697 -0.03756046 C110.8216668 -0.03891053 113.72187663 -0.0402732 116.62208645 -0.04165257 C150.92687624 -0.05793917 185.23166535 -0.06433943 219.53645835 -0.06910044 C236.62680757 -0.07148563 253.71715639 -0.07518952 270.80750531 -0.07913754 C325.66010758 -0.09180154 380.51270984 -0.10258474 435.36531355 -0.10597799 C437.98602722 -0.10614023 440.60674089 -0.10630579 443.22745457 -0.10647238 C448.48311986 -0.10680617 453.73878516 -0.10713665 458.99445045 -0.10746694 C465.14723244 -0.10785383 471.30001444 -0.10824344 477.45279643 -0.108638 C479.21375614 -0.10875042 480.97471585 -0.10886184 482.73567557 -0.10897225 C539.26469083 -0.11251998 595.79369336 -0.12759166 652.32270377 -0.15091 C692.95169885 -0.16766276 733.58069152 -0.18313137 774.20969009 -0.18764496 C775.04611154 -0.18773844 775.88253299 -0.18783193 776.74430054 -0.18792825 C795.11040805 -0.18994778 813.47651552 -0.19110343 831.84262313 -0.19145683 C838.41535622 -0.191593 844.98808931 -0.19180198 851.56082239 -0.19205009 C853.19585132 -0.19211165 854.83088024 -0.19216997 856.46590916 -0.19222504 C882.46801083 -0.19314305 908.47009917 -0.20308952 934.47219646 -0.21768252 C960.68222187 -0.23233328 986.89223098 -0.23731891 1013.10225977 -0.22926298 C1016.73394909 -0.2281478 1020.36563843 -0.22713708 1023.9973278 -0.22618866 C1025.06507133 -0.22590371 1025.06507133 -0.22590371 1026.15438543 -0.225613 C1037.3699578 -0.22289238 1048.58549978 -0.23017919 1059.80106556 -0.24176203 C1070.86258459 -0.2529734 1081.92406939 -0.25301665 1092.98559141 -0.24239184 C1098.88888012 -0.23702691 1104.79206447 -0.23620137 1110.69534431 -0.24890056 C1180.79465515 -0.39001832 1247.36344122 10.43198086 1310.15495491 43.14265823 C1312.11131368 44.15638047 1314.07848653 45.14651362 1316.04753304 46.13533401 C1339.39510117 58.00349603 1361.1205929 73.19350317 1381.06315804 90.13142776 C1382.12158253 91.01574496 1383.18018666 91.89984719 1384.23893929 92.78377151 C1397.46606992 103.89942221 1410.31212365 115.58072091 1421.70768929 128.5889473 C1423.15723646 130.23848603 1424.62543073 131.87027312 1426.09440804 133.50252151 C1487.72395152 202.61032429 1521.81047954 294.42379371 1523.32009314 422.84589076 C1523.31496562 428.75345717 1523.32156075 434.66101339 1523.32657981 440.5685783 C1523.33376681 450.89680495 1523.33367474 461.2250124 1523.32848549 471.55323982 C1523.32295878 482.62096916 1523.32184159 493.68868623 1523.32596016 504.75641632 C1523.3262185 505.45871565 1523.32647685 506.16101498 1523.32674302 506.88459611 C1523.32780972 509.74553897 1523.32890715 512.60648181 1523.33004357 515.46742464 C1523.34059075 542.03892959 1523.34135361 568.61042632 1523.33574867 595.18193245 C1523.33035114 620.78293277 1523.3282415 646.38392921 1523.33078957 671.98493004 C1523.33094453 673.59592331 1523.33109884 675.20691658 1523.33125251 676.81790985 C1523.3318735 683.29260866 1523.33251083 689.76730746 1523.33317203 696.24200625 C1523.33500563 714.33908615 1523.33614714 732.43616606 1523.33674431 750.53324604 C1523.3367716 751.35719634 1523.33679889 752.18114664 1523.33682701 753.03006513 C1523.337645 779.2663014 1523.33539474 805.50253649 1523.33104515 831.73877239 C1523.3308344 833.01431222 1523.3308344 833.01431222 1523.3306194 834.31562053 C1523.32832979 848.1229752 1523.32589073 861.93032986 1523.32343905 875.73768451 C1523.3137276 930.4891341 1523.31417753 985.24057391 1523.32390022 1039.99202347 C1523.32634281 1053.7913955 1523.328765 1067.59076752 1523.33104515 1081.39013958 C1523.3312565 1082.66483934 1523.3312565 1082.66483934 1523.33147211 1083.96529062 C1523.33578772 1110.17446602 1523.33761242 1136.38364061 1523.33674431 1162.59281635 C1523.33670356 1163.82784263 1523.33670356 1163.82784263 1523.33666198 1165.08781894 C1523.33603688 1183.16575493 1523.33476934 1201.24369084 1523.3329233 1219.32162675 C1523.33226509 1225.79068669 1523.33163891 1232.25974664 1523.33102188 1238.72880659 C1523.3308671 1240.33798572 1523.33070964 1241.94716484 1523.33054949 1243.55634397 C1523.32800981 1269.14422485 1523.33085175 1294.73210146 1523.33624978 1320.31998177 C1523.34177898 1346.81945093 1523.3397112 1373.31891026 1523.32918718 1399.81837802 C1523.3280826 1402.67059805 1523.32700917 1405.5228181 1523.32596016 1408.37503815 C1523.32569975 1409.07497084 1523.32543933 1409.77490353 1523.32517103 1410.4960463 C1523.32124376 1421.52803502 1523.32395393 1432.5600114 1523.32949817 1443.59199899 C1523.33482077 1454.46949231 1523.33270757 1465.34696415 1523.32347 1476.22445491 C1523.31873912 1482.03025056 1523.31702957 1487.83600004 1523.32428196 1493.64179414 C1523.39264154 1552.70740965 1523.39264154 1552.70740965 1518.87565804 1580.63142776 C1518.76956215 1581.30144821 1518.66346626 1581.97146866 1518.55415535 1582.66179276 C1513.14515378 1616.63916572 1503.7707016 1650.42372535 1489.20378304 1681.67976761 C1487.98699314 1684.29513664 1486.80700079 1686.92565657 1485.62565804 1689.55720901 C1475.92253578 1710.82075629 1463.93496651 1731.30959455 1450.06315804 1750.13142776 C1449.557201 1750.81849808 1449.05124397 1751.50556839 1448.52995491 1752.21345901 C1441.1166373 1762.21197973 1433.31958985 1771.81920833 1425.06315804 1781.13142776 C1424.24073616 1782.06599808 1423.41831429 1783.00056839 1422.57097054 1783.96345901 C1411.13213325 1796.70297406 1399.15448202 1809.64061381 1385.60222054 1820.15095901 C1383.19841611 1822.02592647 1380.89687446 1823.9911521 1378.59953499 1825.99422073 C1326.08624351 1871.55545484 1257.69155417 1899.2327123 1189.56315804 1909.94392776 C1188.35724007 1910.1388179 1187.1513221 1910.33370804 1185.90886116 1910.53450394 C1157.20167328 1914.77296107 1128.15723813 1914.42450994 1099.22022748 1914.38836287 C1093.31157998 1914.38323218 1087.40294262 1914.38983169 1081.49429661 1914.39484954 C1071.16575235 1914.40203426 1060.83722728 1914.40194593 1050.50868225 1914.39675522 C1039.4413738 1914.39122734 1028.37407762 1914.39011224 1017.30676842 1914.39422989 C1016.60433991 1914.39448823 1015.90191141 1914.39474658 1015.1781972 1914.39501275 C1012.31670425 1914.39607945 1009.45521131 1914.39717689 1006.59371839 1914.3983133 C980.02126259 1914.40885876 953.44881501 1914.40962413 926.87635803 1914.4040184 C901.27618423 1914.39862047 875.67601431 1914.39651143 850.07584 1914.3990593 C848.46476957 1914.39921426 846.85369914 1914.39936857 845.24262871 1914.39952224 C838.76760999 1914.40014323 832.29259127 1914.40078056 825.81757255 1914.40144176 C807.71989727 1914.40327532 789.62222198 1914.40441686 771.52454662 1914.40501404 C770.28860071 1914.40505498 770.28860071 1914.40505498 769.02768619 1914.40509674 C742.79241356 1914.40591468 716.55714211 1914.40366467 690.32186985 1914.39931488 C689.47158022 1914.39917438 688.62129058 1914.39903388 687.74523459 1914.39888913 C673.93907664 1914.39659952 660.13291871 1914.39416046 646.32676079 1914.39170878 C591.57523433 1914.38199646 536.82371765 1914.3824481 482.07219124 1914.39216995 C468.27162839 1914.39461254 454.47106554 1914.39703473 440.67050266 1914.39931488 C439.39569723 1914.39952622 439.39569723 1914.39952622 438.09513814 1914.39974184 C411.88508404 1914.40405724 385.67503076 1914.40588219 359.46497631 1914.40501404 C358.22997041 1914.40497329 358.22997041 1914.40497329 356.97001489 1914.40493171 C338.89270201 1914.40430662 320.81538921 1914.4030391 302.73807642 1914.40119303 C296.26933338 1914.40053481 289.80059033 1914.39990864 283.33184729 1914.39929161 C281.72274689 1914.39913683 280.1136465 1914.39897937 278.5045461 1914.39881922 C252.91571518 1914.39627932 227.32688852 1914.39912185 201.73805816 1914.40451951 C175.23976609 1914.41004788 148.74148386 1914.40798256 122.2431932 1914.39745691 C119.39151101 1914.39635232 116.53982881 1914.3952789 113.68814659 1914.39422989 C112.98834411 1914.39396948 112.28854162 1914.39370906 111.567533 1914.39344076 C100.5348231 1914.38951253 89.50212553 1914.39222469 78.46941674 1914.3977679 C67.59292812 1914.40308871 56.71646097 1914.40098037 45.83997491 1914.39173973 C40.03404393 1914.38700681 34.22815914 1914.38530366 28.4222297 1914.39255169 C-72.74147061 1914.50923144 -171.11783828 1891.24760488 -255.93684196 1818.13142776 C-256.80309196 1817.36443558 -257.66934196 1816.59744339 -258.56184196 1815.80720901 C-261.0359444 1813.5987554 -263.48733793 1811.36711598 -265.93684196 1809.13142776 C-266.96397767 1808.20932097 -267.99133355 1807.28745939 -269.01887321 1806.36580276 C-276.79457257 1799.34683414 -283.97378854 1791.95226486 -290.93684196 1784.13142776 C-291.44682732 1783.56617386 -291.95681267 1783.00091995 -292.48225212 1782.41853714 C-310.24039248 1762.70816273 -325.56349812 1740.88776399 -338.8733654 1717.95711136 C-339.92633241 1716.14946965 -340.99746322 1714.35349654 -342.06965446 1712.55720901 C-380.61069168 1647.0452634 -391.46031165 1573.11901997 -391.32224463 1498.46860239 C-391.31454115 1492.47496972 -391.32445071 1486.4813594 -391.33197463 1480.48773003 C-391.34274647 1470.01298584 -391.34262259 1459.53827835 -391.33483315 1449.06353378 C-391.32653856 1437.84064013 -391.32487086 1426.61777372 -391.33104515 1415.39487839 C-391.33143267 1414.68232495 -391.33182019 1413.96977151 -391.33221945 1413.23562554 C-391.33381951 1410.33283952 -391.33546567 1407.43005353 -391.33717027 1404.52726757 C-391.35298493 1377.57701742 -391.35413807 1350.62678552 -391.34572792 1323.67653275 C-391.33762954 1297.71237823 -391.33446822 1271.74823233 -391.33828926 1245.78407669 C-391.3385217 1244.14977895 -391.33875317 1242.5154812 -391.33898367 1240.88118346 C-391.33991517 1234.31272298 -391.34087117 1227.7442625 -391.34186296 1221.17580203 C-391.34461325 1202.81710809 -391.34632559 1184.45841412 -391.34722137 1166.09972 C-391.34726231 1165.26388385 -391.34730325 1164.4280477 -391.34734543 1163.56688317 C-391.34857227 1136.95516732 -391.34519772 1110.34345408 -391.33867264 1083.73173904 C-391.33846189 1082.86930178 -391.33825114 1082.00686452 -391.33803401 1081.1182928 C-391.33459965 1067.11510072 -391.33094103 1053.1119087 -391.32726349 1039.10871669 C-391.3126958 983.57917041 -391.31337197 928.04964583 -391.32795525 872.52009964 C-391.33161917 858.52377194 -391.33525247 844.52744424 -391.33867264 830.53111649 C-391.33888398 829.66917462 -391.33909533 828.80723276 -391.33931308 827.91917145 C-391.34578688 801.33382579 -391.34852346 774.74848195 -391.34722137 748.16313553 C-391.34718062 747.32792223 -391.34713987 746.49270893 -391.34709788 745.63218614 C-391.34616022 727.29348829 -391.34425887 708.95479062 -391.34148987 690.61609295 C-391.34050255 684.05369603 -391.33956329 677.4912991 -391.33863773 670.92890216 C-391.33840557 669.29652385 -391.33816937 667.66414554 -391.33792914 666.03176724 C-391.33412042 640.08038906 -391.33838114 614.12902035 -391.34647958 588.17764341 C-391.35477501 561.30110538 -391.3516684 534.42458915 -391.33588569 507.54805422 C-391.33422882 504.65469522 -391.33261869 501.76133619 -391.33104515 498.86797714 C-391.33065453 498.157954 -391.33026391 497.44793086 -391.32986145 496.71639187 C-391.32397281 485.5297968 -391.32803337 474.34322912 -391.33635217 463.15663654 C-391.34434021 452.12412905 -391.34115921 441.09166213 -391.32730991 430.05915939 C-391.32021835 424.17174546 -391.317639 418.28443391 -391.32852785 412.39702344 C-391.43665778 349.17357302 -382.93500532 289.39709305 -356.93684196 231.13142776 C-356.51177361 230.17816605 -356.08670525 229.22490433 -355.64875603 228.24275589 C-340.74769228 195.21150397 -320.83923375 164.36994977 -296.93684196 137.13142776 C-296.3271154 136.42244339 -295.71738884 135.71345901 -295.08918571 134.98299026 C-283.55226601 121.61870975 -271.46679374 108.50660944 -257.93684196 97.13142776 C-256.61426384 95.9751387 -256.61426384 95.9751387 -255.26496696 94.79549026 C-187.80527592 36.13441057 -97.89596881 0.24668072 0 0 Z " fill="#000000" transform="translate(497.9368419647217,106.86857223510742)"/>
<path d="M0 0 C5.058476 2.06684427 9.61051274 4.84077836 14.296875 7.63671875 C16.46055049 8.91341653 18.62462666 10.18943546 20.7890625 11.46484375 C21.90506836 12.12419922 23.02107422 12.78355469 24.17089844 13.46289062 C29.5681383 16.63847231 34.994515 19.76298435 40.421875 22.88671875 C42.60678876 24.14580223 44.79168449 25.40491698 46.9765625 26.6640625 C48.60416504 27.60161377 48.60416504 27.60161377 50.26464844 28.55810547 C55.69347442 31.68602023 61.12006781 34.81780323 66.546875 37.94921875 C68.71353083 39.19923754 70.8801975 40.44923753 73.046875 41.69921875 C129.38020833 74.19921875 185.71354167 106.69921875 242.046875 139.19921875 C243.11953613 139.81804932 244.19219727 140.43687988 245.29736328 141.07446289 C247.46244571 142.32357393 249.62748482 143.57276004 251.79248047 144.82202148 C257.23303206 147.96124184 262.67434716 151.09912438 268.1171875 154.234375 C278.56893699 160.25669204 289.00987048 166.29591212 299.421875 172.38671875 C308.09949741 177.46196998 316.81293068 182.47180642 325.546875 187.44921875 C335.26803117 192.98923605 344.95582158 198.58296684 354.61376953 204.23266602 C365.13772125 210.38688617 375.70067637 216.47291871 386.26464844 222.55810547 C391.69347442 225.68602023 397.12006781 228.81780323 402.546875 231.94921875 C404.71353083 233.19923754 406.8801975 234.44923753 409.046875 235.69921875 C448.046875 258.19921875 487.046875 280.69921875 526.046875 303.19921875 C527.12026123 303.81845215 528.19364746 304.43768555 529.29956055 305.07568359 C531.45737303 306.32063157 533.61508853 307.56574765 535.77270508 308.81103516 C541.32404092 312.01474526 546.87724041 315.21515505 552.43359375 318.41015625 C563.86720459 324.98843157 575.27986889 331.58861602 586.546875 338.44921875 C584.32386005 340.89157824 582.15905317 342.33791702 579.22265625 343.83203125 C578.36712158 344.27232666 577.51158691 344.71262207 576.63012695 345.16625977 C575.71577881 345.63088623 574.80143066 346.0955127 573.859375 346.57421875 C567.30154659 349.95632437 560.77545942 353.3669432 554.359375 357.01171875 C553.72201416 357.37362305 553.08465332 357.73552734 552.42797852 358.10839844 C551.13292598 358.8445164 549.83808601 359.58100846 548.54345703 360.31787109 C544.97299822 362.34104377 541.38496201 364.33252638 537.796875 366.32421875 C537.05663086 366.73518799 536.31638672 367.14615723 535.55371094 367.56958008 C528.07625702 371.71650352 520.5865598 375.84113692 513.08984375 379.953125 C510.35801347 381.45169995 507.63040916 382.95707938 504.91015625 384.4765625 C503.43095703 385.29833984 503.43095703 385.29833984 501.921875 386.13671875 C501.10460938 386.59433594 500.28734375 387.05195312 499.4453125 387.5234375 C497.546875 388.44921875 497.546875 388.44921875 495.546875 388.44921875 C495.546875 389.10921875 495.546875 389.76921875 495.546875 390.44921875 C494.60972656 390.82691406 493.67257812 391.20460938 492.70703125 391.59375 C487.62310348 393.775129 482.82516849 396.46861083 477.984375 399.13671875 C476.5293457 399.93311768 476.5293457 399.93311768 475.04492188 400.74560547 C468.44250014 404.37035694 461.90171581 408.08647557 455.421875 411.92578125 C452.51936892 413.46379398 449.68774757 414.50508741 446.546875 415.44921875 C446.546875 416.10921875 446.546875 416.76921875 446.546875 417.44921875 C445.60070313 417.91070313 444.65453125 418.3721875 443.6796875 418.84765625 C433.10643553 424.04699505 422.8144711 429.67416107 412.546875 435.44921875 C410.38359334 436.66393575 408.21689084 437.87149102 406.046875 439.07421875 C405.2115625 439.54085938 404.37625 440.0075 403.515625 440.48828125 C401.546875 441.44921875 401.546875 441.44921875 399.546875 441.44921875 C399.546875 442.10921875 399.546875 442.76921875 399.546875 443.44921875 C398.60972656 443.82691406 397.67257812 444.20460938 396.70703125 444.59375 C391.62310348 446.775129 386.82516849 449.46861083 381.984375 452.13671875 C381.01435547 452.66765137 380.04433594 453.19858398 379.04492188 453.74560547 C372.44250014 457.37035694 365.90171581 461.08647557 359.421875 464.92578125 C356.51936892 466.46379398 353.68774757 467.50508741 350.546875 468.44921875 C350.546875 469.10921875 350.546875 469.76921875 350.546875 470.44921875 C347.2208549 471.87465593 344.15798752 473.0850171 340.546875 473.44921875 C338.00512695 472.42382812 338.00512695 472.42382812 335.28515625 470.79296875 C334.26228516 470.19033203 333.23941406 469.58769531 332.18554688 468.96679688 C331.08791016 468.30099609 329.99027344 467.63519531 328.859375 466.94921875 C327.69817892 466.25952771 326.53605197 465.57140177 325.37304688 464.88476562 C322.95679156 463.45656688 320.54468846 462.02170476 318.13525391 460.58203125 C312.64258418 457.30761551 307.09204998 454.13358503 301.546875 450.94921875 C299.37993424 449.69969396 297.2132684 448.44969228 295.046875 447.19921875 C293.974375 446.58046875 292.901875 445.96171875 291.796875 445.32421875 C236.546875 413.44921875 181.296875 381.57421875 126.046875 349.69921875 C124.97421387 349.08038818 123.90155273 348.46155762 122.79638672 347.82397461 C120.63130429 346.57486357 118.46626518 345.32567746 116.30126953 344.07641602 C110.86071794 340.93719566 105.41940284 337.79931312 99.9765625 334.6640625 C89.52481301 328.64174546 79.08387952 322.60252538 68.671875 316.51171875 C59.99425087 311.43646651 51.280758 306.42674088 42.546875 301.44921875 C33.33499047 296.19886658 24.14414804 290.91509676 14.984375 285.57421875 C13.97310547 284.98511719 12.96183594 284.39601563 11.91992188 283.7890625 C8.409546 281.73789214 4.9305312 279.70498955 1.546875 277.44921875 C-3.35224112 276.61987449 -6.64606747 279.00820617 -10.640625 281.51171875 C-12.16570888 282.4377771 -13.69181854 283.36214747 -15.21875 284.28515625 C-16.05341797 284.79272461 -16.88808594 285.30029297 -17.74804688 285.82324219 C-22.75411687 288.83230592 -27.82632094 291.72713238 -32.890625 294.63671875 C-35.13942347 295.93211712 -37.38812005 297.2276924 -39.63671875 298.5234375 C-40.76577637 299.1736084 -41.89483398 299.8237793 -43.05810547 300.49365234 C-48.5248248 303.64253929 -53.98887387 306.79605139 -59.453125 309.94921875 C-61.61977811 311.19924225 -63.78644479 312.44924222 -65.953125 313.69921875 C-67.025625 314.31796875 -68.098125 314.93671875 -69.203125 315.57421875 C-104.953125 336.19921875 -104.953125 336.19921875 -108.20361328 338.07446289 C-110.36869571 339.32357393 -112.53373482 340.57276004 -114.69873047 341.82202148 C-120.13928206 344.96124184 -125.58059716 348.09912438 -131.0234375 351.234375 C-141.47518699 357.25669204 -151.91612048 363.29591212 -162.328125 369.38671875 C-171.59876431 374.80880574 -180.91249199 380.15245887 -190.24359131 385.4694519 C-198.34020343 390.08405904 -206.41101301 394.74006761 -214.453125 399.44921875 C-223.08810057 404.50552798 -231.75918819 409.49528997 -240.453125 414.44921875 C-250.17437006 419.98907808 -259.86207368 425.58296807 -269.52001953 431.23266602 C-280.02923588 437.37826919 -290.57761164 443.45535524 -301.12695312 449.53173828 C-305.66055898 452.14528352 -310.19049184 454.76516416 -314.72045898 457.38500977 C-317.98940678 459.27297984 -321.26195108 461.15457947 -324.53515625 463.03515625 C-328.19479237 465.13893426 -331.83838385 467.26536839 -335.46484375 469.42578125 C-336.57255127 470.07571045 -336.57255127 470.07571045 -337.70263672 470.73876953 C-339.02493188 471.51462035 -340.34104914 472.30115693 -341.64892578 473.10107422 C-344.08973186 474.5181609 -345.97155697 475.44286142 -348.8203125 475.48046875 C-352.88495915 473.88838164 -356.52861156 471.69120172 -360.265625 469.44921875 C-361.98130382 468.4380093 -363.69745671 467.42760379 -365.4140625 466.41796875 C-366.26709961 465.91394531 -367.12013672 465.40992188 -367.99902344 464.890625 C-371.44030331 462.86940371 -374.90955793 460.90092242 -378.390625 458.94921875 C-379.32902222 458.4224353 -379.32902222 458.4224353 -380.28637695 457.88500977 C-388.97894507 453.01966051 -397.71733631 448.23637703 -406.453125 443.44921875 C-406.453125 442.78921875 -406.453125 442.12921875 -406.453125 441.44921875 C-407.1850708 441.33151123 -407.9170166 441.21380371 -408.67114258 441.0925293 C-411.46691081 440.44603089 -413.46874979 439.54906236 -415.96484375 438.15625 C-416.80007568 437.69379883 -417.63530762 437.23134766 -418.49584961 436.75488281 C-419.80501343 436.0157666 -419.80501343 436.0157666 -421.140625 435.26171875 C-422.04111572 434.75995117 -422.94160645 434.25818359 -423.86938477 433.74121094 C-428.99326448 430.87432801 -434.06266157 427.93559845 -439.06640625 424.86328125 C-444.09555194 421.88365647 -449.2886359 419.1852647 -454.453125 416.44921875 C-454.453125 415.78921875 -454.453125 415.12921875 -454.453125 414.44921875 C-455.26007813 414.21460938 -456.06703125 413.98 -456.8984375 413.73828125 C-461.2803987 412.1492184 -465.23774929 410.04272761 -469.328125 407.82421875 C-470.50375 407.19386719 -470.50375 407.19386719 -471.703125 406.55078125 C-473.62204557 405.52111655 -475.53790103 404.48574308 -477.453125 403.44921875 C-477.453125 402.78921875 -477.453125 402.12921875 -477.453125 401.44921875 C-478.17604736 401.33602295 -478.89896973 401.22282715 -479.64379883 401.10620117 C-482.59284044 400.41654523 -484.75651199 399.39840914 -487.40234375 397.9375 C-488.79936523 397.17083008 -488.79936523 397.17083008 -490.22460938 396.38867188 C-491.18689453 395.85177734 -492.14917969 395.31488281 -493.140625 394.76171875 C-494.08357422 394.24416016 -495.02652344 393.72660156 -495.99804688 393.19335938 C-501.48202075 390.16680885 -506.87833032 387.02034404 -512.23657227 383.77709961 C-514.97812878 382.13470222 -517.76443764 380.58928117 -520.578125 379.07421875 C-521.97417969 378.32011719 -521.97417969 378.32011719 -523.3984375 377.55078125 C-524.07648438 377.18726563 -524.75453125 376.82375 -525.453125 376.44921875 C-525.453125 375.78921875 -525.453125 375.12921875 -525.453125 374.44921875 C-526.26007812 374.21460938 -527.06703125 373.98 -527.8984375 373.73828125 C-532.2803987 372.1492184 -536.23774929 370.04272761 -540.328125 367.82421875 C-541.111875 367.40398437 -541.895625 366.98375 -542.703125 366.55078125 C-544.62204557 365.52111655 -546.53790103 364.48574308 -548.453125 363.44921875 C-548.453125 362.78921875 -548.453125 362.12921875 -548.453125 361.44921875 C-549.17298584 361.33980957 -549.89284668 361.23040039 -550.63452148 361.11767578 C-553.67220228 360.39726261 -555.84847236 359.30696896 -558.55078125 357.75390625 C-559.51234131 357.20589355 -560.47390137 356.65788086 -561.46459961 356.09326172 C-562.47143799 355.50947754 -563.47827637 354.92569336 -564.515625 354.32421875 C-565.54244385 353.73398926 -566.5692627 353.14375977 -567.62719727 352.53564453 C-569.65562062 351.36879123 -571.6826016 350.19942633 -573.70800781 349.02734375 C-576.00459735 347.70707029 -578.3110266 346.41188435 -580.6328125 345.13671875 C-581.70789063 344.53859375 -582.78296875 343.94046875 -583.890625 343.32421875 C-584.79683594 342.82664062 -585.70304687 342.3290625 -586.63671875 341.81640625 C-587.23613281 341.36523438 -587.83554687 340.9140625 -588.453125 340.44921875 C-588.453125 339.45921875 -588.453125 338.46921875 -588.453125 337.44921875 C-587.78482666 337.07748535 -587.11652832 336.70575195 -586.42797852 336.32275391 C-569.64623966 326.98338385 -569.64623966 326.98338385 -553.0390625 317.33911133 C-546.72641023 313.59697466 -540.37408734 309.92540197 -534.015625 306.26171875 C-532.90840088 305.62371338 -531.80117676 304.98570801 -530.66040039 304.32836914 C-528.38975432 303.02032398 -526.11900142 301.71246427 -523.84814453 300.40478516 C-518.3814252 297.25589821 -512.91737613 294.10238611 -507.453125 290.94921875 C-505.28647189 289.69919525 -503.11980521 288.44919528 -500.953125 287.19921875 C-499.880625 286.58046875 -498.808125 285.96171875 -497.703125 285.32421875 C-487.953125 279.69921875 -487.953125 279.69921875 -484.70263672 277.82397461 C-482.53755429 276.57486357 -480.37251518 275.32567746 -478.20751953 274.07641602 C-472.76696794 270.93719566 -467.32565284 267.79931312 -461.8828125 264.6640625 C-451.43106301 258.64174546 -440.99012952 252.60252538 -430.578125 246.51171875 C-421.30812723 241.09000697 -411.99480748 235.7471696 -402.66467285 230.42999268 C-393.5402966 225.22876746 -384.45179726 219.96893997 -375.38623047 214.66577148 C-364.86227875 208.51155133 -354.29932363 202.42551879 -343.73535156 196.34033203 C-338.30652558 193.21241727 -332.87993219 190.08063427 -327.453125 186.94921875 C-325.28646917 185.69919996 -323.1198025 184.44919997 -320.953125 183.19921875 C-319.880625 182.58046875 -318.808125 181.96171875 -317.703125 181.32421875 C-125.953125 70.69921875 -125.953125 70.69921875 -122.70263672 68.82397461 C-120.53755429 67.57486357 -118.37251518 66.32567746 -116.20751953 65.07641602 C-110.76696794 61.93719566 -105.32565284 58.79931312 -99.8828125 55.6640625 C-89.43106301 49.64174546 -78.99012952 43.60252538 -68.578125 37.51171875 C-59.31619232 32.09472398 -50.01160687 26.75535171 -40.68884277 21.4440918 C-31.00226054 15.92448374 -21.35742205 10.3376722 -11.73828125 4.70117188 C-10.80628906 4.15525391 -9.87429688 3.60933594 -8.9140625 3.046875 C-7.68888916 2.32769897 -7.68888916 2.32769897 -6.43896484 1.59399414 C-2.64406123 -0.59365069 -2.64406123 -0.59365069 0 0 Z " fill="#FEFEFE" transform="translate(1081.453125,359.55078125)"/>
<path d="M0 0 C0 204.27 0 408.54 0 619 C-7.59 623.29 -15.18 627.58 -23 632 C-26.94523607 634.28051034 -30.88497704 636.56493281 -34.8125 638.875 C-46.41815142 645.67100718 -58.06394691 652.39590883 -69.71777344 659.10888672 C-75.14659942 662.23680148 -80.57319281 665.36858448 -86 668.5 C-88.16665583 669.75001879 -90.3333225 671.00001878 -92.5 672.25 C-94.10875 673.178125 -94.10875 673.178125 -95.75 674.125 C-313.49999999 799.74999999 -313.49999999 799.74999999 -316.75048828 801.62524414 C-318.91557071 802.87435518 -321.08060982 804.12354129 -323.24560547 805.37280273 C-328.68615706 808.51202309 -334.12747216 811.64990563 -339.5703125 814.78515625 C-350.02206199 820.80747329 -360.46299548 826.84669337 -370.875 832.9375 C-380.14499777 838.35921178 -389.45831752 843.70204915 -398.78845215 849.01922607 C-407.9128284 854.22045129 -417.00132774 859.48027878 -426.06689453 864.78344727 C-436.59084625 870.93766742 -447.15380137 877.02369996 -457.71777344 883.10888672 C-463.14659942 886.23680148 -468.57319281 889.36858448 -474 892.5 C-476.16665583 893.75001879 -478.3333225 895.00001878 -480.5 896.25 C-481.5725 896.86875 -482.645 897.4875 -483.75 898.125 C-501.625 908.4375 -501.625 908.4375 -519.5 918.75 C-520.57419189 919.36979736 -521.64838379 919.98959473 -522.75512695 920.62817383 C-524.90445415 921.86802723 -527.05402781 923.1074535 -529.20385742 924.34643555 C-534.27834489 927.27163763 -539.35021617 930.20111723 -544.4133606 933.14590454 C-546.80315668 934.5354863 -549.19436836 935.92262172 -551.58569336 937.30957031 C-553.27140589 938.28863253 -554.95506587 939.27122606 -556.63867188 940.25390625 C-557.66154297 940.846875 -558.68441406 941.43984375 -559.73828125 942.05078125 C-560.63587158 942.57325439 -561.53346191 943.09572754 -562.45825195 943.6340332 C-564.92213502 944.9581544 -567.38364731 946.01706574 -570 947 C-572.08475127 856.98700947 -572.15599648 766.95232259 -572 673 C-383.5 564.25 -383.5 564.25 -380.24951172 562.37475586 C-378.08442929 561.12564482 -375.91939018 559.87645871 -373.75439453 558.62719727 C-368.31384294 555.48797691 -362.87252784 552.35009437 -357.4296875 549.21484375 C-346.97793801 543.19252671 -336.53700452 537.15330663 -326.125 531.0625 C-316.85669767 525.64177983 -307.54535637 520.29940317 -298.21658325 514.98379517 C-289.97170167 510.28474027 -281.75355703 505.54245528 -273.5625 500.75 C-265.76051982 496.19006328 -257.95518834 491.63637498 -250.125 487.125 C-249.23240479 486.60647461 -248.33980957 486.08794922 -247.42016602 485.55371094 C-246.60346436 485.08481445 -245.7867627 484.61591797 -244.9453125 484.1328125 C-243.87047607 483.51237061 -243.87047607 483.51237061 -242.77392578 482.87939453 C-241 482 -241 482 -239 482 C-239 366.17 -239 250.34 -239 131 C-234.38 128.36 -229.76 125.72 -225 123 C-221.03142543 120.533893 -221.03142543 120.533893 -217.0859375 118.03125 C-215 117 -215 117 -211 117 C-211 116.34 -211 115.68 -211 115 C-210.49774902 114.73896484 -209.99549805 114.47792969 -209.47802734 114.20898438 C-196.89104825 107.65960936 -196.89104825 107.65960936 -184.5 100.75 C-183.39785156 100.11449219 -182.29570313 99.47898437 -181.16015625 98.82421875 C-179.59587891 97.92123047 -179.59587891 97.92123047 -178 97 C-175.98439674 95.84499139 -173.96389508 94.69846848 -171.9375 93.5625 C-171.10089844 93.08941406 -170.26429688 92.61632812 -169.40234375 92.12890625 C-166.92499767 90.964755 -164.69621419 90.41812947 -162 90 C-162 89.34 -162 88.68 -162 88 C-160.93523437 87.443125 -159.87046875 86.88625 -158.7734375 86.3125 C-151.6236942 82.55871911 -144.50024674 78.77716521 -137.5 74.75 C-136.37464844 74.10289062 -135.24929688 73.45578125 -134.08984375 72.7890625 C-132.18309532 71.68502864 -130.27888849 70.57657536 -128.37890625 69.4609375 C-123.96601778 66.91589896 -119.96886672 65.16292625 -115 64 C-115 63.34 -115 62.68 -115 62 C-114.45585449 61.71801758 -113.91170898 61.43603516 -113.35107422 61.14550781 C-110.85717972 59.85057046 -108.36608561 58.55033208 -105.875 57.25 C-105.0190625 56.8065625 -104.163125 56.363125 -103.28125 55.90625 C-99.59930405 53.98030904 -96.01848526 52.08808199 -92.6328125 49.671875 C-90 48 -90 48 -86 48 C-86 47.34 -86 46.68 -86 46 C-85.03964844 45.50113281 -84.07929687 45.00226562 -83.08984375 44.48828125 C-73.15599912 39.29276097 -63.37519869 33.86675694 -53.66967773 28.25512695 C-52.73067627 27.71718506 -51.7916748 27.17924316 -50.82421875 26.625 C-49.57257935 25.90183594 -49.57257935 25.90183594 -48.2956543 25.1640625 C-46 24 -46 24 -43.88598633 23.5234375 C-41.52664365 22.86862447 -40.66474162 21.76186519 -39 20 C-36.29926021 18.29385053 -33.45421379 16.85651398 -30.625 15.375 C-29.49191406 14.76398437 -29.49191406 14.76398437 -28.3359375 14.140625 C-24.58623567 12.16088732 -21.27554963 10.49398781 -17 10 C-17 9.34 -17 8.68 -17 8 C-14.54429825 6.66161267 -12.08570084 5.32913768 -9.625 4 C-8.92632813 3.6184375 -8.22765625 3.236875 -7.5078125 2.84375 C-2.2265625 0 -2.2265625 0 0 0 Z " fill="#FEFEFE" transform="translate(1705,822)"/>
<path d="M0 0 C3.96544118 0.90461627 6.64315204 2.58836778 10 4.84375 C12.0117197 6.00677545 13.731127 6.55432852 16 7 C16 7.66 16 8.32 16 9 C16.80695313 9.23460937 17.61390625 9.46921875 18.4453125 9.7109375 C22.8272737 11.30000035 26.78462429 13.40649114 30.875 15.625 C31.65875 16.04523437 32.4425 16.46546875 33.25 16.8984375 C35.16892057 17.9281022 37.08477603 18.96347567 39 20 C39 20.66 39 21.32 39 22 C39.80695313 22.23460937 40.61390625 22.46921875 41.4453125 22.7109375 C45.8272737 24.30000035 49.78462429 26.40649114 53.875 28.625 C54.65875 29.04523437 55.4425 29.46546875 56.25 29.8984375 C58.16892057 30.9281022 60.08477603 31.96347567 62 33 C62 33.66 62 34.32 62 35 C62.84433594 35.2475 63.68867187 35.495 64.55859375 35.75 C68.32572416 37.1183107 71.63872493 38.95241188 75.0625 41 C78.94387827 43.30626567 82.74026593 45.45393395 87 47 C87 47.66 87 48.32 87 49 C87.80695313 49.23460937 88.61390625 49.46921875 89.4453125 49.7109375 C93.8272737 51.30000035 97.78462429 53.40649114 101.875 55.625 C103.050625 56.25535156 103.050625 56.25535156 104.25 56.8984375 C106.16892057 57.9281022 108.08477603 58.96347567 110 60 C110 60.66 110 61.32 110 62 C110.86753906 62.26167969 111.73507812 62.52335938 112.62890625 62.79296875 C116.02294366 64.00821505 118.83389734 65.48477939 121.9375 67.3125 C123.17795287 68.03459773 124.41887305 68.75589304 125.66015625 69.4765625 C126.34609863 69.87649414 127.03204102 70.27642578 127.73876953 70.68847656 C145.23405685 80.83581876 162.861035 91.04135949 181 100 C181 100.66 181 101.32 181 102 C182.26650391 102.37125 182.26650391 102.37125 183.55859375 102.75 C187.32572416 104.1183107 190.63872493 105.95241188 194.0625 108 C197.94387827 110.30626567 201.74026593 112.45393395 206 114 C206 114.66 206 115.32 206 116 C207.02287109 116.38285156 207.02287109 116.38285156 208.06640625 116.7734375 C211.46886398 118.19603634 214.69437665 119.87843938 217.9375 121.625 C218.51306641 121.93050781 219.08863281 122.23601562 219.68164062 122.55078125 C224.26146698 125.00304806 228.77184235 127.57229573 233.27954102 130.15380859 C233.92709602 130.52426804 234.57465103 130.89472748 235.24182892 131.27641296 C236.82807298 132.18394848 238.41406227 133.09192927 240 134 C239.99566072 134.7283283 239.99132145 135.4566566 239.98685068 136.20705545 C239.73179666 179.3794046 239.5654103 222.55131562 239.51407167 265.72441223 C239.50782998 270.90888644 239.50084792 276.09335941 239.4934082 281.27783203 C239.49193954 282.30996164 239.49047088 283.34209124 239.48895771 284.40549751 C239.46341549 301.11510234 239.37790533 317.82388901 239.27020787 334.53314321 C239.16102492 351.68011967 239.11634391 368.82639071 239.13146263 385.97371256 C239.13876055 396.55415717 239.09583134 407.13194479 238.9885155 417.71185787 C238.91973202 424.96829542 238.91364054 432.22310479 238.95664638 439.47973399 C238.979616 443.66696991 238.97514259 447.84939404 238.89613152 452.0360527 C237.86690341 467.90677211 237.86690341 467.90677211 242.66117406 482.28710794 C246.60452845 485.82167677 250.90813991 487.72396412 255.91957963 489.29145551 C259.05126105 490.35803592 261.62773888 491.98674504 264.43359375 493.73046875 C266.43446621 494.88355831 268.43577394 496.03589289 270.4375 497.1875 C272.68620951 498.4830528 274.93490708 499.77862632 277.18359375 501.07421875 C278.31265137 501.72438965 279.44170898 502.37456055 280.60498047 503.04443359 C286.0716998 506.19332054 291.53574887 509.34683264 297 512.5 C299.16665311 513.7500235 301.33331979 515.00002347 303.5 516.25 C316.5 523.75 329.5 531.25 342.5 538.75 C343.57266113 539.36883057 344.64532227 539.98766113 345.75048828 540.62524414 C347.91557071 541.87435518 350.08060982 543.12354129 352.24560547 544.37280273 C357.68615706 547.51202309 363.12747216 550.64990563 368.5703125 553.78515625 C379.02206199 559.80747329 389.46299548 565.84669337 399.875 571.9375 C408.55262241 577.01275123 417.26605568 582.02258767 426 587 C435.72115617 592.5400173 445.40894658 598.13374809 455.06689453 603.78344727 C465.59084625 609.93766742 476.15380137 616.02369996 486.71777344 622.10888672 C493.2235961 625.8573323 499.72644083 629.61094181 506.22973633 633.36376953 C511.75737281 636.55328795 517.28599381 639.74107821 522.81640625 642.92578125 C532.58011894 648.54975836 542.34303524 654.17477593 552.0625 659.875 C552.76511963 660.28596924 553.46773926 660.69693848 554.19165039 661.12036133 C558.87952283 663.87952283 558.87952283 663.87952283 560 665 C560.12272872 667.7358671 560.1800083 670.44756629 560.19618225 673.18486023 C560.20971455 674.48881397 560.20971455 674.48881397 560.22352022 675.81911021 C560.25278581 678.75788183 560.27491482 681.69666519 560.29711914 684.63549805 C560.31655197 686.73519781 560.33641382 688.83489363 560.35667419 690.93458557 C560.41075236 696.67347242 560.45858916 702.41239655 560.50525212 708.15134788 C560.55536321 714.2013357 560.61072097 720.25127571 560.66539001 726.30122375 C560.75694448 736.52004319 560.84465888 746.73888999 560.92993164 756.95776367 C561.02732405 768.62593954 561.12963834 780.29406316 561.23503023 791.96216935 C561.34827423 804.50516604 561.45776173 817.04819369 561.56622386 829.59123254 C561.59705359 833.13004196 561.62853194 836.66884507 561.66017342 840.20764732 C561.9588746 873.80576434 562.05389032 907.40059499 562 941 C557.90675245 939.67899257 554.35593525 938.22609607 550.640625 936.05078125 C549.62097656 935.4578125 548.60132813 934.86484375 547.55078125 934.25390625 C546.46152344 933.61324219 545.37226562 932.97257812 544.25 932.3125 C543.09279028 931.63743361 541.93523143 930.96296538 540.77734375 930.2890625 C538.37429418 928.88984195 535.9727608 927.48807065 533.57226562 926.08447266 C528.06213188 922.86550635 522.52992383 919.68480155 517 916.5 C514.83323021 915.25017876 512.66656385 914.0001782 510.5 912.75 C509.4275 912.13125 508.355 911.5125 507.25 910.875 C495.33333333 904 483.41666667 897.125 471.5 890.25 C470.42733887 889.63116943 469.35467773 889.01233887 468.24951172 888.37475586 C466.08442929 887.12564482 463.91939018 885.87645871 461.75439453 884.62719727 C456.31384294 881.48797691 450.87252784 878.35009437 445.4296875 875.21484375 C434.97793801 869.19252671 424.53700452 863.15330663 414.125 857.0625 C405.44737759 851.98724877 396.73394432 846.97741233 388 842 C378.27884383 836.4599827 368.59105342 830.86625191 358.93310547 825.21655273 C348.40915375 819.06233258 337.84619863 812.97630004 327.28222656 806.89111328 C321.85340058 803.76319852 316.42680719 800.63141552 311 797.5 C308.83334417 796.24998121 306.6666775 794.99998122 304.5 793.75 C239.5 756.25 174.5 718.75 109.5 681.25 C108.42733887 680.63116943 107.35467773 680.01233887 106.24951172 679.37475586 C104.08442929 678.12564482 101.91939018 676.87645871 99.75439453 675.62719727 C94.31384294 672.48797691 88.87252784 669.35009437 83.4296875 666.21484375 C72.97793808 660.19252675 62.53699707 654.15331935 52.125 648.0625 C42.05171347 642.170832 31.93034386 636.36644069 21.78955078 630.59204102 C20.68853027 629.96483154 19.58750977 629.33762207 18.453125 628.69140625 C17.49567383 628.14685791 16.53822266 627.60230957 15.55175781 627.04125977 C15.03234533 626.71390778 14.51293284 626.38655579 13.97778058 626.04928404 C11.90841176 624.86899195 11.90841176 624.86899195 9.07888103 624.12382644 C5.07203753 622.58577229 2.87093549 621.22699337 0 618 C-2.45493359 610.33358104 -1.56283842 601.63526817 -1.4430542 593.69654846 C-1.44828571 591.14136482 -1.45879013 588.58618741 -1.47412419 586.03104442 C-1.49899285 580.4693085 -1.47931908 574.90911376 -1.4304657 569.34755707 C-1.35802748 561.07807955 -1.35443693 552.80957331 -1.36496956 544.53983636 C-1.38073581 530.62919962 -1.34064324 516.71924693 -1.26876068 502.80880928 C-1.19776634 489.0349648 -1.15157156 475.26140519 -1.13852692 461.48737907 C-1.13770204 460.63109794 -1.13687717 459.77481681 -1.13602729 458.89258776 C-1.13196732 454.54400298 -1.12835071 450.19541794 -1.12490478 445.84683263 C-1.09969692 415.04230709 -1.01884094 384.23815375 -0.90527344 353.43383789 C-0.79506864 323.50710022 -0.71006135 293.58046438 -0.65917969 263.65356445 C-0.65760137 262.73115858 -0.65602306 261.80875271 -0.65439692 260.85839515 C-0.63857474 251.59525209 -0.62326496 242.33210824 -0.60833061 233.06896371 C-0.5778957 214.19871593 -0.54404067 195.32847479 -0.50811768 176.45823669 C-0.5064702 175.59060557 -0.50482272 174.72297444 -0.50312531 173.82905147 C-0.39270932 115.88587841 -0.20231645 57.94291596 0 0 Z " fill="#FEFEFE" transform="translate(455,823)"/>
<path d="M0 0 C1.91655679 1.025151 3.8150553 2.08443169 5.69921875 3.16796875 C7.36911865 4.12521851 7.36911865 4.12521851 9.07275391 5.10180664 C10.27771682 5.79695534 11.4826309 6.4921887 12.6875 7.1875 C13.94434799 7.90968618 15.20134912 8.6316059 16.45849609 9.35327148 C19.68637148 11.20743067 22.91189349 13.06563953 26.13653564 14.92541504 C28.99525204 16.57392183 31.85518454 18.22031688 34.71484375 19.8671875 C40.07278109 22.95479176 45.42792501 26.04720933 50.78222656 29.14111328 C56.18670645 32.26324605 61.59347412 35.38141204 67 38.5 C69.1666775 39.74998122 71.33334417 40.99998121 73.5 42.25 C75.10875 43.178125 75.10875 43.178125 76.75 44.125 C106 61 135.25 77.875 164.5 94.75 C165.57266113 95.36883057 166.64532227 95.98766113 167.75048828 96.62524414 C169.91557071 97.87435518 172.08060982 99.12354129 174.24560547 100.37280273 C179.68615706 103.51202309 185.12747216 106.64990563 190.5703125 109.78515625 C201.02206199 115.80747329 211.46299548 121.84669337 221.875 127.9375 C230.55262439 133.01275239 239.26612926 138.02245629 248 143 C266.42854959 153.50364431 284.72855828 164.22580746 303 175 C300.27042901 177.93600584 297.71023226 179.91376515 294.16796875 181.77734375 C293.21680176 182.28386475 292.26563477 182.79038574 291.28564453 183.31225586 C290.26325684 183.84858643 289.24086914 184.38491699 288.1875 184.9375 C286.00031578 186.10231656 283.81414129 187.26903081 281.62890625 188.4375 C280.51918457 189.03046875 279.40946289 189.6234375 278.26611328 190.234375 C273.34362579 192.89541772 268.48395933 195.66265313 263.625 198.4375 C254.27193438 203.76409028 244.82492528 208.89845921 235.33813477 213.98242188 C227.01369219 218.44534305 218.74255128 222.99378707 210.49902344 227.60400391 C205.39975185 230.4525419 200.29322071 233.28804304 195.1875 236.125 C194.04273193 236.76115234 192.89796387 237.39730469 191.71850586 238.05273438 C179.71230037 244.72223425 167.68540906 251.35413091 155.65722656 257.98388672 C150.20739394 260.9879275 144.75899316 263.99456347 139.31048584 267.00100708 C136.29038271 268.66744466 133.27018665 270.33371379 130.25 272 C129.04166622 272.66666586 127.83333289 273.33333253 126.625 274 C114.54166667 280.66666667 102.45833333 287.33333333 90.375 294 C89.77688507 294.32999496 89.17877014 294.65998993 88.56253052 294.99998474 C87.35409724 295.6667055 86.14566218 296.33342303 84.93722534 297.00013733 C81.91790656 298.66594998 78.89861866 300.33181854 75.87939453 301.99780273 C69.81351025 305.34483067 63.7470959 308.69089192 57.6796875 312.03515625 C46.1707067 318.37923488 34.6643921 324.72819259 23.17144775 331.10128784 C21.50782509 332.02351536 19.84352689 332.94452393 18.17919922 333.86547852 C17.14939941 334.43709717 16.11959961 335.00871582 15.05859375 335.59765625 C14.06069824 336.14824707 13.06280273 336.69883789 12.03466797 337.26611328 C9.90653816 338.48204071 7.80832986 339.75114246 5.73486328 341.05810547 C4.67895996 341.7182666 3.62305664 342.37842773 2.53515625 343.05859375 C1.59164307 343.66888428 0.64812988 344.2791748 -0.32397461 344.90795898 C-3 346 -3 346 -5.56518555 345.33154297 C-6.36867432 344.89213379 -7.17216309 344.45272461 -8 344 C-8.73331543 343.62963623 -9.46663086 343.25927246 -10.22216797 342.87768555 C-10.97127441 342.4681665 -11.72038086 342.05864746 -12.4921875 341.63671875 C-13.34981689 341.1689502 -14.20744629 340.70118164 -15.09106445 340.21923828 C-16.00976318 339.71376465 -16.92846191 339.20829102 -17.875 338.6875 C-18.8446167 338.15624512 -19.8142334 337.62499023 -20.81323242 337.07763672 C-29.6114486 332.2428297 -38.35085463 327.30608299 -47.08203125 322.3515625 C-53.20794248 318.87698238 -59.35272295 315.43659932 -65.5 312 C-78.30150333 304.8399042 -91.06990233 297.62203669 -103.83398438 290.39550781 C-115.76068017 283.64416074 -127.70215253 276.92035813 -139.66357422 270.23071289 C-147.56595763 265.80898075 -155.451684 261.35844897 -163.33154297 256.89672852 C-170.4167797 252.88767249 -177.51852549 248.90876517 -184.625 244.9375 C-192.27214861 240.66298819 -199.90023427 236.3581974 -207.5 232 C-219.28336565 225.2439786 -231.14132228 218.62265985 -243 212 C-264.76993447 199.84224732 -286.4360417 187.51941808 -308 175 C-306.74327861 171.22983584 -305.70437669 170.99288597 -302.27734375 169.13671875 C-301.27646729 168.58701416 -300.27559082 168.03730957 -299.24438477 167.47094727 C-298.15311279 166.88240967 -297.06184082 166.29387207 -295.9375 165.6875 C-293.63178953 164.4211316 -291.32712644 163.15285461 -289.0234375 161.8828125 C-288.4346431 161.55928299 -287.84584869 161.23575348 -287.23921204 160.90242004 C-281.45653569 157.71876177 -275.75404915 154.40554125 -270.0625 151.0625 C-268.07173919 149.89562073 -266.08085253 148.72895613 -264.08984375 147.5625 C-263.0932373 146.97855469 -262.09663086 146.39460937 -261.06982422 145.79296875 C-255.7667275 142.69562962 -250.44605065 139.62886142 -245.125 136.5625 C-244.04484619 135.93996338 -242.96469238 135.31742676 -241.85180664 134.67602539 C-239.66203666 133.41423174 -237.47217645 132.15259466 -235.28222656 130.89111328 C-229.85340058 127.76319852 -224.42680719 124.63141552 -219 121.5 C-216.83334417 120.24998121 -214.6666775 118.99998122 -212.5 117.75 C-211.4275 117.13125 -210.355 116.5125 -209.25 115.875 C-147.5 80.25 -147.5 80.25 -144.24951172 78.37475586 C-142.08442929 77.12564482 -139.91939018 75.87645871 -137.75439453 74.62719727 C-132.31384294 71.48797691 -126.87252784 68.35009437 -121.4296875 65.21484375 C-110.97793801 59.19252671 -100.53700452 53.15330663 -90.125 47.0625 C-80.85669767 41.64177983 -71.54535637 36.29940317 -62.21658325 30.98379517 C-53.97168403 26.28473021 -45.75465619 21.54059423 -37.5625 16.75 C-36.59401123 16.18667969 -35.62552246 15.62335937 -34.62768555 15.04296875 C-29.73401286 12.19538063 -24.86171871 9.31853923 -20.015625 6.390625 C-18.11468685 5.26024257 -16.21364939 4.13002712 -14.3125 3 C-13.4450415 2.4647168 -12.57758301 1.92943359 -11.68383789 1.37792969 C-10.8768042 0.90258789 -10.06977051 0.42724609 -9.23828125 -0.0625 C-8.53743408 -0.48660156 -7.83658691 -0.91070313 -7.11450195 -1.34765625 C-4.09606046 -2.27887385 -2.77936679 -1.41482181 0 0 Z " fill="#FEFEFE" transform="translate(1081,707)"/>
<path d="M0 0 C3.85395516 1.25040627 7.29296489 2.56233798 10.80859375 4.58203125 C12.15800049 5.35148071 12.15800049 5.35148071 13.53466797 6.13647461 C14.97156982 6.96610718 14.97156982 6.96610718 16.4375 7.8125 C18.51164995 8.99751626 20.58587064 10.18240871 22.66015625 11.3671875 C23.71605957 11.97272461 24.77196289 12.57826172 25.85986328 13.20214844 C30.68756008 15.96619441 35.5309745 18.70220357 40.375 21.4375 C41.31722412 21.97028564 42.25944824 22.50307129 43.23022461 23.05200195 C51.36173843 27.64759662 59.51158684 32.21013813 67.66357422 36.76928711 C75.56595763 41.19101925 83.451684 45.64155103 91.33154297 50.10327148 C98.4167797 54.11232751 105.51852549 58.09123483 112.625 62.0625 C121.12821198 66.8155239 129.60133101 71.61723862 138.05175781 76.46337891 C145.85941011 80.93438979 153.70852068 85.32976155 161.5625 89.71875 C168.55290602 93.62616369 175.53122304 97.55415086 182.5 101.5 C190.48774107 106.02207659 198.48878029 110.5196512 206.5 115 C215.45791332 120.00979597 224.40024115 125.04620483 233.33154297 130.10327148 C240.41678014 134.11232776 247.5185662 138.09116138 254.625 142.0625 C262.68654411 146.56965885 270.73088009 151.10524652 278.75 155.6875 C279.61318848 156.18064697 280.47637695 156.67379395 281.36572266 157.18188477 C285.83673456 159.74245726 285.83673456 159.74245726 288 161 C288.85445583 161.39233952 289.70891167 161.78467903 290.5892601 162.18890762 C293 164 293 164 293.64368057 166.76762009 C293.65252148 167.89946354 293.66136238 169.03130699 293.67047119 170.19744873 C293.69272577 171.49973325 293.71498035 172.80201777 293.73790932 174.14376545 C293.73750463 175.59421622 293.73663579 177.04466693 293.73535156 178.49511719 C293.75205777 180.02504757 293.77095108 181.55495539 293.79186058 183.0848341 C293.84284313 187.27423598 293.86294235 191.46330397 293.87797213 195.65296817 C293.89928922 200.1073253 293.94908309 204.5613669 293.99569702 209.01551819 C294.07153681 216.63044627 294.12958081 224.2453367 294.17510986 231.86050415 C294.24025153 242.75241785 294.33213489 253.64397112 294.43147206 264.53562081 C294.58305678 281.20055914 294.71632833 297.86557262 294.83691406 314.53076172 C294.96727958 332.49103894 295.13533614 350.45052409 295.3359375 368.41015625 C295.38658958 372.99308142 295.43707711 377.57600839 295.48754883 382.15893555 C295.50527643 383.76422859 295.50527643 383.76422859 295.52336216 385.40195179 C295.9204548 421.60134526 296.16825948 457.7983253 296 494 C292.21481268 492.5839494 288.80250679 490.84578935 285.30078125 488.83203125 C284.18751465 488.19386475 283.07424805 487.55569824 281.92724609 486.89819336 C280.72228318 486.20304466 279.5173691 485.5078113 278.3125 484.8125 C277.05565201 484.09031382 275.79865088 483.3683941 274.54150391 482.64672852 C271.31362852 480.79256933 268.08810651 478.93436047 264.86346436 477.07458496 C262.00474796 475.42607817 259.14481546 473.77968312 256.28515625 472.1328125 C250.92721891 469.04520824 245.57207499 465.95279067 240.21777344 462.85888672 C234.81329355 459.73675395 229.40652588 456.61858796 224 453.5 C221.8333225 452.25001878 219.66665583 451.00001879 217.5 449.75 C216.4275 449.13125 215.355 448.5125 214.25 447.875 C193.66666667 436 173.08333333 424.125 152.5 412.25 C151.42733887 411.63116943 150.35467773 411.01233887 149.24951172 410.37475586 C147.08442929 409.12564482 144.91939018 407.87645871 142.75439453 406.62719727 C137.31384294 403.48797691 131.87252784 400.35009437 126.4296875 397.21484375 C115.97793801 391.19252671 105.53700452 385.15330663 95.125 379.0625 C86.44737759 373.98724877 77.73394432 368.97741233 69 364 C59.29424197 358.46875799 49.62099815 352.88522558 39.97924805 347.24291992 C31.16212734 342.08537358 22.31571537 336.97959604 13.46240234 331.88452148 C12.42937988 331.28969971 11.39635742 330.69487793 10.33203125 330.08203125 C9.42171143 329.55843018 8.5113916 329.0348291 7.57348633 328.49536133 C6.72423584 328.00189209 5.87498535 327.50842285 5 327 C4.13461115 326.58613484 3.2692223 326.17226967 2.37760955 325.74586314 C0 324 0 324 -0.62099248 321.54990703 C-0.61909388 320.56681109 -0.61719528 319.58371516 -0.61523914 318.57082844 C-0.62519439 317.43623513 -0.63514963 316.30164181 -0.64540654 315.13266689 C-0.63084234 313.88073816 -0.61627813 312.62880944 -0.60127258 311.33894348 C-0.60345191 309.99991382 -0.60782787 308.66088622 -0.61421841 307.32187003 C-0.62542913 303.63426666 -0.60535808 299.94738573 -0.58032811 296.25987446 C-0.5587854 292.28647476 -0.56603913 288.31311756 -0.56983948 284.3396759 C-0.5724644 277.45279559 -0.55674413 270.56615167 -0.52865028 263.67933083 C-0.48805759 253.7221201 -0.47499742 243.76502397 -0.46871033 233.80773946 C-0.45776048 217.65374388 -0.42446759 201.49987437 -0.37719727 185.34594727 C-0.33131951 169.65161776 -0.29591888 153.95732246 -0.2746582 138.26293945 C-0.27334459 137.29594106 -0.27203097 136.32894266 -0.27067754 135.33264128 C-0.26415247 130.48161431 -0.25783391 125.6305871 -0.25161803 120.77955973 C-0.19976353 80.51961878 -0.11167949 40.25981659 0 0 Z " fill="#FEFEFE" transform="translate(752,944)"/>
<path d="M0 0 C0 105.93 0 211.86 0 321 C-5.94 324.3 -11.88 327.6 -18 331 C-21.84331346 333.21483257 -25.67784714 335.43728936 -29.5 337.6875 C-31.55437201 338.89116363 -33.60907123 340.09426893 -35.6640625 341.296875 C-36.7046582 341.90595703 -37.74525391 342.51503906 -38.81738281 343.14257812 C-44.1589109 346.25997193 -49.51648374 349.34942542 -54.875 352.4375 C-55.95458984 353.05971436 -57.03417969 353.68192871 -58.14648438 354.32299805 C-60.3368252 355.58511517 -62.52725502 356.84707785 -64.71777344 358.10888672 C-70.14659942 361.23680148 -75.57319281 364.36858448 -81 367.5 C-83.16665583 368.75001879 -85.3333225 370.00001878 -87.5 371.25 C-88.5725 371.86875 -89.645 372.4875 -90.75 373.125 C-230.5 453.75 -230.5 453.75 -233.75219727 455.6262207 C-235.91159395 456.8720577 -238.07093669 458.11798818 -240.23022461 459.36401367 C-245.75767597 462.55348953 -251.28615121 465.74116885 -256.81640625 468.92578125 C-259.0651661 470.22124666 -261.3138649 471.51681806 -263.5625 472.8125 C-264.64007568 473.43326416 -265.71765137 474.05402832 -266.82788086 474.69360352 C-273.9773458 478.81776574 -281.1042292 482.97822933 -288.19165039 487.20825195 C-292.89395395 490 -292.89395395 490 -294 490 C-296.01260588 323.04346718 -296.01260588 323.04346718 -296.59419632 254.72982407 C-296.62458673 251.1733637 -296.65560063 247.61690923 -296.68673706 244.06045532 C-296.92174367 217.03973414 -297.0597156 190.0217696 -297 163 C-286.36665776 157.08142666 -275.7200451 151.18737778 -265.0625 145.3125 C-255.53208961 140.05879665 -246.01047534 134.78974249 -236.5 129.5 C-223.56893511 122.30861424 -210.61540903 115.15846448 -197.65722656 108.01611328 C-192.20739394 105.0120725 -186.75899316 102.00543653 -181.31048584 98.99899292 C-178.29038271 97.33255534 -175.27018665 95.66628621 -172.25 94 C-171.04166622 93.33333414 -169.83333289 92.66666747 -168.625 92 C-146.875 80 -125.125 68 -103.375 56 C-102.77688507 55.67000504 -102.17877014 55.34001007 -101.56253052 55.00001526 C-100.35409724 54.3332945 -99.14566218 53.66657697 -97.93722534 52.99986267 C-94.91790656 51.33405002 -91.89861866 49.66818146 -88.87939453 48.00219727 C-83.42389781 44.9919684 -77.96817579 41.98215164 -72.51130676 38.97441101 C-59.97578236 32.06497558 -47.44730485 25.14340966 -34.9375 18.1875 C-32.72920604 16.96086661 -30.52087365 15.73430241 -28.3125 14.5078125 C-24.18497105 12.21544254 -20.06045358 9.91777399 -15.9375 7.6171875 C-14.10428949 6.59873722 -12.27096331 5.58049511 -10.4375 4.5625 C-9.60404053 4.09545654 -8.77058105 3.62841309 -7.91186523 3.1472168 C-7.15591064 2.72867432 -6.39995605 2.31013184 -5.62109375 1.87890625 C-4.9655249 1.5135376 -4.30995605 1.14816895 -3.63452148 0.77172852 C-2 0 -2 0 0 0 Z " fill="#FEFEFE" transform="translate(1402,947)"/>
<path d="M0 0 C0.66 0 1.32 0 2 0 C1.67 0.99 1.34 1.98 1 3 C0.90305535 4.93278514 0.86620588 6.8687797 0.8613348 8.80398846 C0.85586036 10.02218326 0.85038591 11.24037807 0.84474558 12.49548787 C0.84366931 13.85438829 0.84268463 15.21328878 0.84178162 16.57218933 C0.83721729 18.01021043 0.83221746 19.4482302 0.82681805 20.88624841 C0.81321275 24.84721515 0.80581167 28.80817328 0.79939139 32.76915729 C0.79139794 37.03704838 0.77769654 41.3049215 0.76467896 45.57279968 C0.74290122 52.97031785 0.72476147 60.36783783 0.70907402 67.76537132 C0.6863872 78.46103884 0.65824273 89.15668648 0.62875474 99.85233716 C0.58106425 117.20420233 0.53780402 134.55607562 0.49731445 151.90795898 C0.45796694 168.76636385 0.4165425 185.6247615 0.37231445 202.4831543 C0.36822804 204.04118373 0.36822804 204.04118373 0.36405908 205.63068851 C0.35037973 210.84133349 0.33665943 216.05197837 0.32291877 221.26262319 C0.20893111 264.50840042 0.10212682 307.75419325 0 351 C-0.33 351 -0.66 351 -1 351 C-1.02286444 306.4290916 -1.04049724 261.85818383 -1.05106533 217.28727073 C-1.05231611 212.03111342 -1.05361042 206.77495612 -1.05493164 201.51879883 C-1.05519395 200.47234597 -1.05545626 199.42589311 -1.05572652 198.34772956 C-1.06008364 181.38023791 -1.06797141 164.41274964 -1.0771528 147.44526 C-1.08648818 130.04871448 -1.09205536 112.65217073 -1.09408849 95.2556228 C-1.09546396 84.5119151 -1.09981583 73.76821693 -1.10791647 63.02451216 C-1.11318251 55.66769852 -1.11480462 48.31088984 -1.11350138 40.95407445 C-1.11285777 36.70290964 -1.11387801 32.45176154 -1.11920547 28.20059967 C-1.12403923 24.31526714 -1.12433881 20.42996268 -1.12089889 16.54462891 C-1.12047318 15.13277602 -1.12176912 13.72092143 -1.12488318 12.30907191 C-1.1288469 10.40242781 -1.12615648 8.49577323 -1.12304783 6.58912754 C-1.12342755 5.52629034 -1.12380727 4.46345313 -1.1241985 3.36840874 C-1 1 -1 1 0 0 Z " fill="#DEDEDE" transform="translate(1467,952)"/>
</svg>
